<svg width="12" height="7" viewBox="0 0 12 7" fill="none" xmlns="http://www.w3.org/2000/svg">
<path d="M0.85354 1.1463C0.807417 1.09854 0.752244 1.06045 0.691242 1.03425C0.630239 1.00804 0.56463 0.994248 0.49824 0.993671C0.43185 0.993094 0.366012 1.00575 0.304564 1.03089C0.243114 1.05603 0.187288 1.09315 0.140343 1.1401C0.0933962 1.18705 0.0562687 1.24287 0.0311289 1.30432C0.00598812 1.36577 -0.00666237 1.43161 -0.0060854 1.498C-0.00550938 1.56439 0.00828457 1.63 0.0344896 1.691C0.0606937 1.752 0.0987844 1.80717 0.14654 1.8533L4.23254 5.9393C4.70168 6.40736 5.33733 6.67023 6.00004 6.67023C6.66275 6.67023 7.2984 6.40736 7.76754 5.9393L11.8535 1.8533C11.9446 1.759 11.995 1.63269 11.9939 1.5016C11.9927 1.3705 11.9402 1.24509 11.8474 1.15239C11.7547 1.05968 11.6293 1.0071 11.4982 1.00596C11.3671 1.00482 11.2408 1.05522 11.1465 1.1463L7.06054 5.2323C6.77925 5.5135 6.39779 5.67148 6.00004 5.67148C5.60229 5.67148 5.22083 5.5135 4.93954 5.2323L0.85354 1.1463Z" fill="black"/>
</svg>
