<svg width="128" height="41" viewBox="0 0 128 41" fill="none" xmlns="http://www.w3.org/2000/svg">
<rect width="128" height="41" rx="20.5" fill="white"/>
<g clip-path="url(#clip0_4_1870)">
<path d="M106.312 26.6331H92.6817C92.3051 26.6331 92 26.9382 92 27.3151C92 27.6914 92.3051 27.9965 92.6817 27.9965H106.312C106.688 27.9965 106.993 27.6914 106.993 27.3151C106.993 26.9382 106.688 26.6331 106.312 26.6331Z" fill="#2F4FFF"/>
<path d="M93.5335 24.8609C93.1569 24.8609 92.8518 25.166 92.8518 25.5426C92.8518 25.9192 93.1569 26.2246 93.5335 26.2246H105.46C105.836 26.2246 106.142 25.9192 106.142 25.5426C106.142 25.166 105.836 24.8609 105.46 24.8609H105.29V18.727H105.46C105.648 18.727 105.8 18.5745 105.8 18.3865C105.8 18.1985 105.648 18.046 105.46 18.046H93.5335C93.3452 18.046 93.1929 18.1985 93.1929 18.3865C93.1929 18.5745 93.3455 18.727 93.5335 18.727H93.7039V24.8606H93.5335V24.8609ZM103.926 18.727V24.8606H101.882V18.727H103.926ZM100.519 18.727V24.8606H98.4741V18.727H100.519ZM95.0666 18.727H97.1111V24.8606H95.0666V18.727Z" fill="#2F4FFF"/>
<path d="M92.6817 17.441H106.312C106.314 17.441 106.316 17.441 106.318 17.441C106.695 17.441 107 17.1359 107 16.7594C107 16.46 106.807 16.2063 106.539 16.1144L99.7768 13.0713C99.5991 12.9916 99.3958 12.9916 99.2177 13.0713L92.4021 16.138C92.1088 16.2701 91.9476 16.5886 92.0153 16.9026C92.0826 17.2167 92.3603 17.441 92.6817 17.441Z" fill="#2F4FFF"/>
</g>
<path d="M28.764 22.78L27.192 17.488H25.848L24.276 22.78L22.872 16.6H21.216L23.412 25H24.996L26.52 20.056L28.044 25H29.628L31.824 16.6H30.168L28.764 22.78ZM32.9433 16.6V25H34.5033V16.6H32.9433ZM38.1662 18.04V25H39.7262V18.04H42.0542V16.6H35.8382V18.04H38.1662ZM44.9564 25V21.232H48.3164V25H49.8764V16.6H48.3164V19.792H44.9564V16.6H43.3964V25H44.9564ZM54.2158 25C56.1958 25 58.1278 23.728 58.1278 20.8C58.1278 17.872 56.1958 16.6 54.2158 16.6H51.5878V25H54.2158ZM53.1478 18.04H53.7238C54.4558 18.04 55.0558 18.196 55.6198 18.58C56.1958 18.964 56.5438 19.732 56.5438 20.8C56.5438 21.868 56.1958 22.636 55.6198 23.02C55.0558 23.404 54.4558 23.56 53.7238 23.56H53.1478V18.04ZM65.1374 18.988C65.1374 17.548 64.2134 16.6 62.5814 16.6H59.5214V25H61.0814V21.376H61.8974L64.1534 25H65.8934L63.5654 21.244C64.5734 20.944 65.1374 20.104 65.1374 18.988ZM61.0814 19.936V18.04H62.5934C63.2534 18.04 63.5774 18.352 63.5774 18.988C63.5774 19.624 63.2534 19.936 62.5934 19.936H61.0814ZM73.765 25L70.921 16.6H69.361L66.517 25H68.197L68.809 23.02H71.473L72.085 25H73.765ZM71.029 21.58H69.253L70.141 18.664L71.029 21.58ZM80.9945 22.78L79.4225 17.488H78.0785L76.5065 22.78L75.1025 16.6H73.4465L75.6425 25H77.2265L78.7505 20.056L80.2745 25H81.8585L84.0545 16.6H82.3985L80.9945 22.78Z" fill="#2F4FFF"/>
<defs>
<clipPath id="clip0_4_1870">
<rect width="15" height="15" fill="white" transform="translate(92 13)"/>
</clipPath>
</defs>
</svg>
