<svg width="42" height="42" viewBox="0 0 42 42" fill="none" xmlns="http://www.w3.org/2000/svg">
<path d="M20.6821 22.2199C23.1585 22.2199 25.1658 20.2121 25.1658 17.736C25.1658 15.2596 23.1585 13.2521 20.6821 13.2521C18.2055 13.2521 16.1982 15.2596 16.1982 17.736C16.2012 20.211 18.2068 22.2166 20.6821 22.2199ZM20.6821 14.9953C22.2004 14.9953 23.4312 16.2261 23.4312 17.7446C23.4312 19.2629 22.2004 20.494 20.6821 20.494C19.1636 20.494 17.9328 19.2629 17.9328 17.7446C17.9331 16.2263 19.1638 14.9959 20.6821 14.9953Z" fill="#2FCF5F"/>
<path d="M20.6821 23.8767C18.8475 23.8632 17.0869 24.5995 15.8079 25.9148C14.507 27.2418 13.7958 29.0458 13.7958 31.0058C13.7971 31.4842 14.1844 31.8718 14.6631 31.8731H26.7008C27.1794 31.8718 27.5667 31.4842 27.5681 31.0058C27.5681 29.0458 26.8569 27.2418 25.556 25.9148C24.2773 24.5995 22.5164 23.8632 20.6821 23.8767ZM15.5911 30.1386C15.7393 29.0046 16.2508 27.9492 17.0481 27.1291C18.0078 26.158 19.3166 25.6113 20.6821 25.6113C22.0472 25.6113 23.356 26.158 24.3157 27.1291C25.1115 27.95 25.6224 29.0051 25.7728 30.1386H15.5911Z" fill="#2FCF5F"/>
<path d="M31.0895 1.31812H10.2746C7.88003 1.3192 5.93892 3.26003 5.93811 5.65457V36.3567C5.93892 38.7512 7.88003 40.692 10.2746 40.6931H31.0895C33.4841 40.692 35.4249 38.7512 35.426 36.3567V5.65457C35.4249 3.26003 33.4841 1.3192 31.0895 1.31812ZM33.6914 36.3567C33.6873 37.7918 32.5246 38.9545 31.0895 38.9585H10.2746C8.83947 38.9545 7.67676 37.7918 7.67269 36.3567V5.65457C7.67676 4.21947 8.83947 3.05676 10.2746 3.0527H31.0895C32.5246 3.05676 33.6873 4.21947 33.6914 5.65457V36.3567Z" fill="#2FCF5F"/>
<path d="M17.0655 7.1379H24.0039C24.4828 7.1379 24.8711 6.74952 24.8711 6.27061C24.8711 5.7917 24.4828 5.40332 24.0039 5.40332H17.0655C16.5864 5.40332 16.1982 5.7917 16.1982 6.27061C16.1982 6.74952 16.5864 7.1379 17.0655 7.1379V7.1379Z" fill="#2FCF5F"/>
</svg>
