<svg width="144" height="177" viewBox="0 0 144 177" fill="none" xmlns="http://www.w3.org/2000/svg">
<path d="M140.516 105.588C141.836 141.958 113.404 172.513 77.0107 173.834C40.6173 175.155 10.0451 146.742 8.72506 110.372C7.40504 74.0018 35.8371 43.4469 72.2305 42.126C108.624 40.8051 139.196 69.2186 140.516 105.588Z" stroke="#37CB95"/>
<path d="M71.872 166.397C107.258 165.113 134.903 135.404 133.62 100.04C132.336 64.6765 102.61 37.0497 67.2241 38.3339C31.8383 39.6182 4.19294 69.3273 5.47643 104.691C6.75992 140.055 36.4862 167.682 71.872 166.397Z" fill="#D7FBEE"/>
<path d="M60.853 126.389L40.6955 107.739C39.1274 106.282 39.0381 103.819 40.4963 102.252C41.9546 100.685 44.4189 100.595 45.987 102.053L60.4114 115.417L92.3112 80.6866C93.7695 79.1194 96.2322 78.9868 97.8002 80.4441C99.3683 81.9014 99.5009 84.3626 98.0426 85.9297L60.853 126.389Z" fill="#09CF87"/>
<path d="M16.8026 46.9996C16.0676 47.0262 15.2769 46.7088 14.7361 46.1228L0.734798 30.1044C-0.21387 29.014 -0.100526 27.3659 0.992175 26.461C2.08331 25.5128 3.73244 25.626 4.63788 26.718L18.6392 42.7364C19.5879 43.8268 19.4745 45.4749 18.3818 46.3798C17.9204 46.7859 17.3646 46.9792 16.8026 46.9996Z" fill="#BBF0DD"/>
<path d="M41.0608 31.9288C39.98 31.9681 38.9173 31.3144 38.5322 30.2468L31.2269 10.2648C30.7444 8.89792 31.4276 7.44544 32.7938 6.91996C34.1616 6.43768 35.6149 7.12041 36.1407 8.48575L43.4028 28.4693C43.8853 29.8362 43.2021 31.2887 41.8359 31.8142C41.6213 31.8652 41.3634 31.9179 41.0608 31.9288Z" fill="#BBF0DD"/>
<path d="M69.177 26.5388C69.1338 26.5404 69.0905 26.5419 69.0473 26.5435C67.6175 26.5089 66.4495 25.3399 66.4842 23.9109L66.8383 2.65589C66.8731 1.22695 68.0428 0.0596505 69.4727 0.0942825C70.9025 0.128915 72.0704 1.29789 72.0357 2.72684L71.6816 23.9819C71.6469 25.4108 70.5172 26.4901 69.177 26.5388Z" fill="#BBF0DD"/>
<path d="M97.2819 31.5756C96.936 31.5881 96.587 31.5143 96.2364 31.3972C94.919 30.8826 94.2573 29.3491 94.8155 28.031L102.757 8.27437C103.272 6.95778 104.806 6.29641 106.125 6.85422C107.442 7.36883 108.104 8.90228 107.546 10.2204L99.6048 29.9771C99.207 30.9433 98.2762 31.5395 97.2819 31.5756Z" fill="#BBF0DD"/>
<path d="M121.759 46.3917C121.111 46.4152 120.409 46.1811 119.915 45.6799C118.885 44.7222 118.825 43.0804 119.782 42.0073L134.281 26.4255C135.24 25.3957 136.882 25.3361 137.956 26.2922C138.986 27.2498 139.046 28.8916 138.089 29.9647L123.59 45.5465C123.09 46.0838 122.451 46.3666 121.759 46.3917Z" fill="#BBF0DD"/>
</svg>
