<svg width="270" height="209" viewBox="0 0 270 209" fill="none" xmlns="http://www.w3.org/2000/svg">
<path d="M190.756 17.6197C187.438 14.647 183.825 9.69222 180.113 4.24159C182.553 3.91793 184.609 3.34227 185.717 2.22516C188.296 7.90935 191.043 11.4757 195.154 16.0833C193.466 15.4975 192.352 17.1092 190.756 17.6197Z" fill="#C6EAE9"/>
<path d="M49.2994 98.0095C50.6427 94.9874 53.1573 91.4849 55.9564 87.8092C56.4633 89.6879 57.08 91.2499 57.9189 91.9667C54.8126 94.7554 53.015 97.3833 50.8139 101.243C50.937 99.8312 49.8148 99.1816 49.2994 98.0095Z" fill="#FFBE21"/>
<path d="M187.324 204.299C188.848 200.961 191.615 197.038 194.736 192.977C195.311 195.069 195.961 196.773 196.905 197.597C193.477 200.699 191.464 203.643 189.01 207.923C189.136 206.335 187.873 205.613 187.324 204.299Z" fill="#FE337B"/>
<path d="M255.782 19.6106C257.305 16.2727 260.072 12.3493 263.194 8.28893C263.769 10.3804 264.419 12.0842 265.363 12.9082C261.935 16.011 259.921 18.9543 257.468 23.2348C257.593 21.6464 256.366 20.9249 255.782 19.6106Z" fill="#95A0FC"/>
<path d="M63.1729 150.655C61.7306 147.281 59.0599 143.291 56.0377 139.156C55.4122 141.233 54.7207 142.921 53.7575 143.722C57.109 146.907 59.0503 149.898 61.3989 154.237C61.3119 152.681 62.5563 151.99 63.1729 150.655Z" fill="#D3DFFF"/>
<path d="M235.215 73.063C231.001 74.0364 225.134 74.3892 218.81 74.6303C219.996 72.9489 220.827 71.4044 220.629 70.2361C226.449 70.8368 230.762 70.4652 236.669 69.6537C235.211 70.5192 235.759 71.8684 235.215 73.063Z" fill="#FF96BB"/>
<path d="M42.8317 180.841C38.6175 181.814 32.751 182.167 26.4268 182.408C27.6126 180.727 28.4436 179.182 28.2459 178.014C34.0655 178.614 38.3784 178.243 44.2857 177.431C42.8273 178.297 43.376 179.646 42.8317 180.841Z" fill="#FF96BB"/>
<path d="M112.933 22.6101C108.631 25.0663 102.427 26.9694 95.7675 28.6904C96.6518 25.6627 97.1787 22.984 96.6718 21.1054C103.032 20.8293 107.57 19.3299 113.676 16.6836C112.314 18.3982 113.242 20.494 112.933 22.6101Z" fill="#FE337B"/>
<path d="M198.909 140.138C202.061 142.297 205.652 146.156 209.379 150.441C207.323 151.016 205.584 151.772 204.687 152.892C201.954 148.266 199.233 145.513 195.249 142.037C196.764 142.303 197.595 140.794 198.909 140.138Z" fill="#C6EAE9"/>
<path d="M5.67436 75.7162C9.21142 78.1616 13.2907 82.4861 17.4346 87.306C15.096 87.9489 13.1437 88.7731 12.1745 90.0686C9.0946 84.8729 6.02471 81.7619 1.55189 77.8566C3.27861 78.1602 4.18237 76.44 5.67436 75.7162Z" fill="#FF96BB"/>
<path d="M236.976 119.968C239.654 117.563 242.425 113.286 245.237 108.586C243.09 107.959 241.228 107.195 240.148 105.98C238.355 111.081 236.235 114.129 232.974 117.976C234.462 117.605 235.537 119.279 236.976 119.968Z" fill="#FF96BB"/>
<path d="M260.884 151.985C261.657 155.209 263.445 159.153 265.478 163.311C266.311 161.625 267.175 160.258 268.099 159.774C265.633 156.388 264.362 153.44 262.93 149.219C262.773 150.559 261.567 150.933 260.884 151.985Z" fill="#D3DFFF"/>
</svg>
