<svg width="42" height="38" viewBox="0 0 42 38" fill="none" xmlns="http://www.w3.org/2000/svg">
<path d="M37.571 0.0405273H10.4123C8.05533 0.0405273 6.13773 1.9402 6.13773 4.26763L5.96271 28.1822H0.66256C0.286943 28.1822 0 28.5143 0 28.89V32.1812C0 35.2622 2.46559 37.7819 5.44129 37.92V37.9596H28.3117V37.9151C28.4818 37.922 28.5847 37.9596 28.7016 37.9596H28.7179C31.8915 37.941 34.4498 35.3541 34.4332 32.1805V11.2632H41.3374C41.713 11.2632 42 10.9231 42 10.5478V4.50907C42.0043 2.05478 40.0252 0.0581292 37.571 0.0405273V0.0405273ZM5.73886 36.5992H5.73421C3.31479 36.5992 1.36032 34.5996 1.36032 32.1805V29.5426H22.9555V32.1692C22.9501 33.7002 23.5549 35.1702 24.6359 36.2542C24.7508 36.3697 24.8711 36.4292 24.9939 36.5992H5.73886ZM33.0729 32.1798C33.0729 34.5996 31.1373 36.5992 28.7169 36.5992H28.7029C26.2706 36.5816 24.3101 34.6019 24.3158 32.1695V28.89C24.3178 28.509 24.0165 28.1955 23.6356 28.1822H7.32303L7.49805 4.27228C7.49805 2.69044 8.80524 1.40085 10.4123 1.40085H34.3598C33.5846 2.25105 33.0729 3.32676 33.0729 4.52734V32.1798ZM40.6397 4.52103V9.90288H34.4332V4.52601C34.4332 2.82361 35.8493 1.40085 37.551 1.40085H37.57C39.276 1.41779 40.6476 2.80966 40.6397 4.51605V4.52103Z" fill="black" fill-opacity="0.72"/>
</svg>
